<mxfile host="65bd71144e">
    <diagram id="jtr1Tm0XrrfJptQ2LhaA" name="PÃ¡gina-1">
        <mxGraphModel dx="1606" dy="448" grid="1" gridSize="10" guides="0" tooltips="1" connect="1" arrows="1" fold="1" page="1" pageScale="1" pageWidth="827" pageHeight="1169" math="0" shadow="0">
            <root>
                <mxCell id="0"/>
                <mxCell id="1" parent="0"/>
                <mxCell id="4" value="" style="edgeStyle=none;html=1;" edge="1" parent="1" source="2" target="3">
                    <mxGeometry relative="1" as="geometry"/>
                </mxCell>
                <mxCell id="2" value="inicio" style="ellipse;whiteSpace=wrap;html=1;fillColor=#60a917;fontColor=#ffffff;strokeColor=#2D7600;" vertex="1" parent="1">
                    <mxGeometry x="460" y="150" width="140" height="80" as="geometry"/>
                </mxCell>
                <mxCell id="6" value="" style="edgeStyle=none;html=1;" edge="1" parent="1" source="3" target="5">
                    <mxGeometry relative="1" as="geometry"/>
                </mxCell>
                <mxCell id="3" value="x,y" style="shape=parallelogram;perimeter=parallelogramPerimeter;whiteSpace=wrap;html=1;fixedSize=1;fillColor=#fa6800;fontColor=#000000;strokeColor=#C73500;" vertex="1" parent="1">
                    <mxGeometry x="470" y="320" width="120" height="60" as="geometry"/>
                </mxCell>
                <mxCell id="8" value="" style="edgeStyle=none;html=1;" edge="1" parent="1" source="5" target="7">
                    <mxGeometry relative="1" as="geometry">
                        <Array as="points">
                            <mxPoint x="910" y="490"/>
                        </Array>
                    </mxGeometry>
                </mxCell>
                <mxCell id="10" value="" style="edgeStyle=none;html=1;" edge="1" parent="1" source="5" target="9">
                    <mxGeometry relative="1" as="geometry">
                        <Array as="points">
                            <mxPoint x="170" y="490"/>
                        </Array>
                    </mxGeometry>
                </mxCell>
                <mxCell id="5" value="x==0" style="rhombus;whiteSpace=wrap;html=1;fillColor=#e3c800;fontColor=#000000;strokeColor=#B09500;" vertex="1" parent="1">
                    <mxGeometry x="490" y="450" width="80" height="80" as="geometry"/>
                </mxCell>
                <mxCell id="12" value="" style="edgeStyle=none;html=1;entryX=0.499;entryY=0.848;entryDx=0;entryDy=0;entryPerimeter=0;" edge="1" parent="1" source="7" target="11">
                    <mxGeometry relative="1" as="geometry">
                        <Array as="points">
                            <mxPoint x="710" y="570"/>
                        </Array>
                    </mxGeometry>
                </mxCell>
                <mxCell id="14" value="" style="edgeStyle=none;html=1;entryX=0.522;entryY=0.858;entryDx=0;entryDy=0;entryPerimeter=0;" edge="1" parent="1" source="7" target="13">
                    <mxGeometry relative="1" as="geometry">
                        <Array as="points">
                            <mxPoint x="1090" y="570"/>
                        </Array>
                    </mxGeometry>
                </mxCell>
                <mxCell id="7" value="y==0" style="rhombus;whiteSpace=wrap;html=1;fillColor=#e3c800;fontColor=#000000;strokeColor=#B09500;" vertex="1" parent="1">
                    <mxGeometry x="870" y="530" width="80" height="80" as="geometry"/>
                </mxCell>
                <mxCell id="21" value="" style="edgeStyle=none;html=1;" edge="1" parent="1" source="9" target="20">
                    <mxGeometry relative="1" as="geometry">
                        <Array as="points">
                            <mxPoint x="350" y="570"/>
                        </Array>
                    </mxGeometry>
                </mxCell>
                <mxCell id="23" value="" style="edgeStyle=none;html=1;" edge="1" parent="1" source="9" target="22">
                    <mxGeometry relative="1" as="geometry">
                        <Array as="points">
                            <mxPoint x="-140" y="570"/>
                        </Array>
                    </mxGeometry>
                </mxCell>
                <mxCell id="9" value="y==0" style="rhombus;whiteSpace=wrap;html=1;fillColor=#e3c800;fontColor=#000000;strokeColor=#B09500;" vertex="1" parent="1">
                    <mxGeometry x="130" y="530" width="80" height="80" as="geometry"/>
                </mxCell>
                <mxCell id="11" value="eje y" style="shape=document;whiteSpace=wrap;html=1;boundedLbl=1;fillColor=#0050ef;fontColor=#ffffff;strokeColor=#001DBC;" vertex="1" parent="1">
                    <mxGeometry x="650" y="620" width="120" height="80" as="geometry"/>
                </mxCell>
                <mxCell id="13" value="ORIGEN" style="shape=document;whiteSpace=wrap;html=1;boundedLbl=1;fillColor=#0050ef;fontColor=#ffffff;strokeColor=#001DBC;" vertex="1" parent="1">
                    <mxGeometry x="1030" y="620" width="120" height="80" as="geometry"/>
                </mxCell>
                <mxCell id="16" value="" style="endArrow=none;html=1;entryX=0.502;entryY=0.868;entryDx=0;entryDy=0;entryPerimeter=0;" edge="1" parent="1" target="13">
                    <mxGeometry width="50" height="50" relative="1" as="geometry">
                        <mxPoint x="920" y="760" as="sourcePoint"/>
                        <mxPoint x="1130" y="730" as="targetPoint"/>
                        <Array as="points">
                            <mxPoint x="1090" y="760"/>
                        </Array>
                    </mxGeometry>
                </mxCell>
                <mxCell id="17" value="" style="endArrow=none;html=1;entryX=0.479;entryY=0.948;entryDx=0;entryDy=0;entryPerimeter=0;" edge="1" parent="1" target="11">
                    <mxGeometry width="50" height="50" relative="1" as="geometry">
                        <mxPoint x="920" y="760" as="sourcePoint"/>
                        <mxPoint x="1100" y="690" as="targetPoint"/>
                        <Array as="points">
                            <mxPoint x="710" y="760"/>
                        </Array>
                    </mxGeometry>
                </mxCell>
                <mxCell id="19" value="" style="endArrow=none;html=1;" edge="1" parent="1">
                    <mxGeometry width="50" height="50" relative="1" as="geometry">
                        <mxPoint x="910" y="1120" as="sourcePoint"/>
                        <mxPoint x="910" y="760" as="targetPoint"/>
                    </mxGeometry>
                </mxCell>
                <mxCell id="20" value="eje x" style="shape=document;whiteSpace=wrap;html=1;boundedLbl=1;fillColor=#0050ef;strokeColor=#001DBC;fontColor=#ffffff;" vertex="1" parent="1">
                    <mxGeometry x="294" y="640" width="120" height="80" as="geometry"/>
                </mxCell>
                <mxCell id="25" value="" style="edgeStyle=none;html=1;" edge="1" parent="1" source="22" target="24">
                    <mxGeometry relative="1" as="geometry">
                        <Array as="points">
                            <mxPoint x="10" y="650"/>
                        </Array>
                    </mxGeometry>
                </mxCell>
                <mxCell id="27" value="" style="edgeStyle=none;html=1;" edge="1" parent="1" source="22" target="26">
                    <mxGeometry relative="1" as="geometry">
                        <Array as="points">
                            <mxPoint x="-400" y="650"/>
                        </Array>
                    </mxGeometry>
                </mxCell>
                <mxCell id="22" value="x&amp;gt;0" style="rhombus;whiteSpace=wrap;html=1;fillColor=#e3c800;strokeColor=#B09500;fontColor=#000000;" vertex="1" parent="1">
                    <mxGeometry x="-180" y="610" width="80" height="80" as="geometry"/>
                </mxCell>
                <mxCell id="29" value="" style="edgeStyle=none;html=1;" edge="1" parent="1" source="24" target="28">
                    <mxGeometry relative="1" as="geometry">
                        <Array as="points">
                            <mxPoint x="150" y="730"/>
                        </Array>
                    </mxGeometry>
                </mxCell>
                <mxCell id="32" value="" style="edgeStyle=none;html=1;" edge="1" parent="1" source="24" target="31">
                    <mxGeometry relative="1" as="geometry">
                        <Array as="points">
                            <mxPoint x="-130" y="730"/>
                        </Array>
                    </mxGeometry>
                </mxCell>
                <mxCell id="24" value="y&amp;gt;0" style="rhombus;whiteSpace=wrap;html=1;fillColor=#e3c800;strokeColor=#B09500;fontColor=#000000;" vertex="1" parent="1">
                    <mxGeometry x="-30" y="690" width="80" height="80" as="geometry"/>
                </mxCell>
                <mxCell id="34" value="" style="edgeStyle=none;html=1;" edge="1" parent="1" source="26" target="33">
                    <mxGeometry relative="1" as="geometry">
                        <Array as="points">
                            <mxPoint x="-280" y="730"/>
                        </Array>
                    </mxGeometry>
                </mxCell>
                <mxCell id="36" value="" style="edgeStyle=none;html=1;" edge="1" parent="1" source="26" target="35">
                    <mxGeometry relative="1" as="geometry">
                        <Array as="points">
                            <mxPoint x="-550" y="730"/>
                        </Array>
                    </mxGeometry>
                </mxCell>
                <mxCell id="26" value="y&amp;gt;0" style="rhombus;whiteSpace=wrap;html=1;fillColor=#e3c800;strokeColor=#B09500;fontColor=#000000;" vertex="1" parent="1">
                    <mxGeometry x="-440" y="690" width="80" height="80" as="geometry"/>
                </mxCell>
                <mxCell id="28" value="CUADRANTE 1" style="shape=document;whiteSpace=wrap;html=1;boundedLbl=1;fillColor=#0050ef;strokeColor=#001DBC;fontColor=#ffffff;" vertex="1" parent="1">
                    <mxGeometry x="90" y="770" width="120" height="80" as="geometry"/>
                </mxCell>
                <mxCell id="31" value="CUADRANTE 4" style="shape=document;whiteSpace=wrap;html=1;boundedLbl=1;fillColor=#0050ef;strokeColor=#001DBC;fontColor=#ffffff;" vertex="1" parent="1">
                    <mxGeometry x="-190" y="770" width="120" height="80" as="geometry"/>
                </mxCell>
                <mxCell id="33" value="CUADRANTE 3" style="shape=document;whiteSpace=wrap;html=1;boundedLbl=1;fillColor=#0050ef;strokeColor=#001DBC;fontColor=#ffffff;" vertex="1" parent="1">
                    <mxGeometry x="-340" y="770" width="120" height="80" as="geometry"/>
                </mxCell>
                <mxCell id="35" value="CUADRANTE 2" style="shape=document;whiteSpace=wrap;html=1;boundedLbl=1;fillColor=#0050ef;strokeColor=#001DBC;fontColor=#ffffff;" vertex="1" parent="1">
                    <mxGeometry x="-610" y="770" width="120" height="80" as="geometry"/>
                </mxCell>
                <mxCell id="37" value="" style="endArrow=none;html=1;entryX=0.507;entryY=0.883;entryDx=0;entryDy=0;entryPerimeter=0;" edge="1" parent="1" target="35">
                    <mxGeometry width="50" height="50" relative="1" as="geometry">
                        <mxPoint x="-400" y="960" as="sourcePoint"/>
                        <mxPoint x="-550" y="840" as="targetPoint"/>
                        <Array as="points">
                            <mxPoint x="-549" y="960"/>
                        </Array>
                    </mxGeometry>
                </mxCell>
                <mxCell id="38" value="" style="endArrow=none;html=1;entryX=0.517;entryY=0.883;entryDx=0;entryDy=0;entryPerimeter=0;" edge="1" parent="1" target="33">
                    <mxGeometry width="50" height="50" relative="1" as="geometry">
                        <mxPoint x="-400" y="960" as="sourcePoint"/>
                        <mxPoint x="-280" y="840" as="targetPoint"/>
                        <Array as="points">
                            <mxPoint x="-278" y="960"/>
                        </Array>
                    </mxGeometry>
                </mxCell>
                <mxCell id="39" value="" style="endArrow=none;html=1;entryX=0.707;entryY=0.703;entryDx=0;entryDy=0;entryPerimeter=0;" edge="1" parent="1" target="31">
                    <mxGeometry width="50" height="50" relative="1" as="geometry">
                        <mxPoint x="40" y="970" as="sourcePoint"/>
                        <mxPoint x="-118" y="830" as="targetPoint"/>
                        <Array as="points">
                            <mxPoint x="-105" y="970"/>
                        </Array>
                    </mxGeometry>
                </mxCell>
                <mxCell id="40" value="" style="endArrow=none;html=1;entryX=0.814;entryY=0.703;entryDx=0;entryDy=0;entryPerimeter=0;" edge="1" parent="1" target="28">
                    <mxGeometry width="50" height="50" relative="1" as="geometry">
                        <mxPoint x="40" y="970" as="sourcePoint"/>
                        <mxPoint x="180" y="830" as="targetPoint"/>
                        <Array as="points">
                            <mxPoint x="188" y="970"/>
                        </Array>
                    </mxGeometry>
                </mxCell>
                <mxCell id="42" value="" style="endArrow=none;html=1;sketch=1;" edge="1" parent="1">
                    <mxGeometry width="50" height="50" relative="1" as="geometry">
                        <mxPoint x="-400" y="1120" as="sourcePoint"/>
                        <mxPoint x="-400" y="960" as="targetPoint"/>
                    </mxGeometry>
                </mxCell>
                <mxCell id="43" value="" style="endArrow=none;html=1;sketch=1;" edge="1" parent="1">
                    <mxGeometry width="50" height="50" relative="1" as="geometry">
                        <mxPoint x="50" y="1120" as="sourcePoint"/>
                        <mxPoint x="50" y="970" as="targetPoint"/>
                    </mxGeometry>
                </mxCell>
                <mxCell id="44" value="" style="endArrow=none;html=1;sketch=1;entryX=0.57;entryY=0.794;entryDx=0;entryDy=0;entryPerimeter=0;" edge="1" parent="1" target="20">
                    <mxGeometry width="50" height="50" relative="1" as="geometry">
                        <mxPoint x="360" y="1120" as="sourcePoint"/>
                        <mxPoint x="330" y="930" as="targetPoint"/>
                    </mxGeometry>
                </mxCell>
                <mxCell id="45" value="" style="endArrow=none;html=1;sketch=1;" edge="1" parent="1">
                    <mxGeometry width="50" height="50" relative="1" as="geometry">
                        <mxPoint x="-404.2354090073529" y="1120" as="sourcePoint"/>
                        <mxPoint x="911.4117072610294" y="1120" as="targetPoint"/>
                    </mxGeometry>
                </mxCell>
                <mxCell id="46" value="" style="endArrow=none;html=1;sketch=1;startArrow=none;" edge="1" parent="1" source="47">
                    <mxGeometry width="50" height="50" relative="1" as="geometry">
                        <mxPoint x="600" y="1390" as="sourcePoint"/>
                        <mxPoint x="600" y="1120" as="targetPoint"/>
                    </mxGeometry>
                </mxCell>
                <mxCell id="48" value="" style="endArrow=none;html=1;sketch=1;" edge="1" parent="1" target="47">
                    <mxGeometry width="50" height="50" relative="1" as="geometry">
                        <mxPoint x="600" y="1390" as="sourcePoint"/>
                        <mxPoint x="600" y="1120" as="targetPoint"/>
                    </mxGeometry>
                </mxCell>
                <mxCell id="47" value="FIN" style="ellipse;whiteSpace=wrap;html=1;fillColor=#e51400;fontColor=#ffffff;strokeColor=#B20000;" vertex="1" parent="1">
                    <mxGeometry x="540" y="1360" width="120" height="80" as="geometry"/>
                </mxCell>
                <mxCell id="49" value="&lt;font color=&quot;#e21212&quot;&gt;FALSE&lt;/font&gt;" style="text;html=1;align=center;verticalAlign=middle;resizable=0;points=[];autosize=1;strokeColor=none;fillColor=none;" vertex="1" parent="1">
                    <mxGeometry x="430" y="465" width="60" height="30" as="geometry"/>
                </mxCell>
                <mxCell id="50" value="&lt;font color=&quot;#80ff00&quot;&gt;TRUE&lt;/font&gt;" style="text;html=1;align=center;verticalAlign=middle;resizable=0;points=[];autosize=1;strokeColor=none;fillColor=none;fontColor=#f90101;" vertex="1" parent="1">
                    <mxGeometry x="570" y="465" width="60" height="30" as="geometry"/>
                </mxCell>
                <mxCell id="51" value="FALSE" style="text;html=1;align=center;verticalAlign=middle;resizable=0;points=[];autosize=1;strokeColor=none;fillColor=none;fontColor=#e21212;" vertex="1" parent="1">
                    <mxGeometry x="810" y="545" width="60" height="30" as="geometry"/>
                </mxCell>
                <mxCell id="53" value="&lt;font color=&quot;#3fe212&quot;&gt;TRUE&lt;/font&gt;" style="text;html=1;align=center;verticalAlign=middle;resizable=0;points=[];autosize=1;strokeColor=none;fillColor=none;fontColor=#e21212;" vertex="1" parent="1">
                    <mxGeometry x="950" y="545" width="60" height="30" as="geometry"/>
                </mxCell>
                <mxCell id="54" value="TRUE" style="text;html=1;align=center;verticalAlign=middle;resizable=0;points=[];autosize=1;strokeColor=none;fillColor=none;fontColor=#3fe212;" vertex="1" parent="1">
                    <mxGeometry x="200" y="545" width="60" height="30" as="geometry"/>
                </mxCell>
                <mxCell id="55" value="TRUE" style="text;html=1;align=center;verticalAlign=middle;resizable=0;points=[];autosize=1;strokeColor=none;fillColor=none;fontColor=#3fe212;" vertex="1" parent="1">
                    <mxGeometry x="-110" y="625" width="60" height="30" as="geometry"/>
                </mxCell>
                <mxCell id="56" value="TRUE" style="text;html=1;align=center;verticalAlign=middle;resizable=0;points=[];autosize=1;strokeColor=none;fillColor=none;fontColor=#3fe212;" vertex="1" parent="1">
                    <mxGeometry x="-370" y="710" width="60" height="30" as="geometry"/>
                </mxCell>
                <mxCell id="58" value="TRUE" style="text;html=1;align=center;verticalAlign=middle;resizable=0;points=[];autosize=1;strokeColor=none;fillColor=none;fontColor=#3fe212;" vertex="1" parent="1">
                    <mxGeometry x="40" y="705" width="60" height="30" as="geometry"/>
                </mxCell>
                <mxCell id="59" value="&lt;font color=&quot;#ff3333&quot;&gt;FALSE&lt;/font&gt;" style="text;html=1;align=center;verticalAlign=middle;resizable=0;points=[];autosize=1;strokeColor=none;fillColor=none;fontColor=#3fe212;" vertex="1" parent="1">
                    <mxGeometry x="77" y="545" width="60" height="30" as="geometry"/>
                </mxCell>
                <mxCell id="60" value="FALSE" style="text;html=1;align=center;verticalAlign=middle;resizable=0;points=[];autosize=1;strokeColor=none;fillColor=none;fontColor=#FF3333;" vertex="1" parent="1">
                    <mxGeometry x="-240" y="625" width="60" height="30" as="geometry"/>
                </mxCell>
                <mxCell id="61" value="FALSE" style="text;html=1;align=center;verticalAlign=middle;resizable=0;points=[];autosize=1;strokeColor=none;fillColor=none;fontColor=#FF3333;" vertex="1" parent="1">
                    <mxGeometry x="-500" y="705" width="60" height="30" as="geometry"/>
                </mxCell>
                <mxCell id="62" value="FALSE" style="text;html=1;align=center;verticalAlign=middle;resizable=0;points=[];autosize=1;strokeColor=none;fillColor=none;fontColor=#FF3333;" vertex="1" parent="1">
                    <mxGeometry x="-90" y="705" width="60" height="30" as="geometry"/>
                </mxCell>
            </root>
        </mxGraphModel>
    </diagram>
</mxfile>